<?xml version="1.0" encoding="UTF-8"?>
<svg xmlns="http://www.w3.org/2000/svg" xmlns:xlink="http://www.w3.org/1999/xlink" width="16px" height="16px" viewBox="0 0 16 16" version="1.1">
<g id="surface1">
<path style=" stroke:none;fill-rule:nonzero;fill:rgb(58.823532%,83.92157%,55.29412%);fill-opacity:1;" d="M 15.3125 0.53125 C 15.515625 0.679688 15.695312 0.839844 15.75 1.09375 C 15.847656 1.84375 15.464844 2.714844 15.027344 3.308594 C 14.773438 3.628906 14.496094 3.894531 14.15625 4.125 C 14.167969 4.183594 14.183594 4.242188 14.195312 4.300781 C 14.203125 4.332031 14.210938 4.367188 14.21875 4.398438 C 14.289062 4.625 14.410156 4.722656 14.609375 4.832031 C 15.316406 5.253906 15.761719 5.898438 15.96875 6.6875 C 16.128906 7.378906 15.976562 8.117188 15.625 8.71875 C 15.285156 9.246094 14.808594 9.636719 14.238281 9.898438 C 14.082031 9.972656 14 10.054688 13.9375 10.21875 C 13.910156 10.332031 13.910156 10.332031 13.894531 10.449219 C 13.800781 11.023438 13.539062 11.503906 13.15625 11.9375 C 13.140625 11.957031 13.121094 11.976562 13.105469 11.996094 C 12.550781 12.59375 11.75 12.808594 10.96875 12.875 C 10.996094 12.90625 10.996094 12.90625 11.023438 12.9375 C 11.207031 13.152344 11.359375 13.375 11.5 13.625 C 11.519531 13.660156 11.539062 13.691406 11.558594 13.726562 C 11.769531 14.125 12.019531 14.679688 11.886719 15.132812 C 11.808594 15.3125 11.671875 15.445312 11.496094 15.53125 C 11.375 15.574219 11.261719 15.570312 11.128906 15.570312 C 11.089844 15.570312 11.089844 15.570312 11.046875 15.570312 C 10.953125 15.570312 10.859375 15.570312 10.765625 15.570312 C 10.699219 15.570312 10.632812 15.570312 10.566406 15.570312 C 10.386719 15.574219 10.203125 15.574219 10.023438 15.574219 C 9.871094 15.574219 9.71875 15.574219 9.570312 15.574219 C 9.210938 15.574219 8.855469 15.574219 8.496094 15.574219 C 8.128906 15.574219 7.761719 15.574219 7.390625 15.574219 C 7.078125 15.578125 6.761719 15.578125 6.445312 15.578125 C 6.253906 15.578125 6.066406 15.578125 5.878906 15.578125 C 5.699219 15.578125 5.523438 15.578125 5.34375 15.578125 C 5.277344 15.578125 5.214844 15.578125 5.148438 15.578125 C 5.058594 15.578125 4.96875 15.578125 4.882812 15.578125 C 4.855469 15.578125 4.828125 15.578125 4.804688 15.578125 C 4.597656 15.578125 4.4375 15.519531 4.28125 15.382812 C 4.265625 15.367188 4.253906 15.347656 4.238281 15.328125 C 4.222656 15.3125 4.210938 15.296875 4.195312 15.277344 C 4.0625 15.070312 4.058594 14.851562 4.109375 14.617188 C 4.269531 13.957031 4.589844 13.390625 5.03125 12.875 C 5.011719 12.871094 4.996094 12.871094 4.976562 12.867188 C 4.105469 12.769531 3.285156 12.507812 2.710938 11.796875 C 2.371094 11.359375 2.144531 10.867188 2.085938 10.3125 C 2.046875 10.15625 1.976562 10.019531 1.84375 9.925781 C 1.773438 9.886719 1.699219 9.851562 1.625 9.816406 C 0.871094 9.445312 0.371094 8.855469 0.0820312 8.078125 C -0.121094 7.394531 -0.046875 6.640625 0.28125 6.015625 C 0.558594 5.503906 0.933594 5.089844 1.449219 4.808594 C 1.648438 4.691406 1.757812 4.535156 1.820312 4.3125 C 1.832031 4.269531 1.839844 4.230469 1.851562 4.1875 C 1.859375 4.144531 1.867188 4.105469 1.878906 4.0625 C 1.882812 4.042969 1.886719 4.023438 1.890625 4 C 1.90625 3.9375 1.90625 3.9375 1.929688 3.871094 C 1.953125 3.796875 1.953125 3.796875 1.96875 3.6875 C 1.925781 3.605469 1.925781 3.605469 1.851562 3.546875 C 1.351562 3.042969 1.007812 2.183594 0.988281 1.476562 C 0.988281 1.21875 1.066406 1.046875 1.226562 0.851562 C 1.484375 0.640625 1.691406 0.5625 2.023438 0.585938 C 2.90625 0.695312 3.757812 1.152344 4.34375 1.8125 C 4.367188 1.855469 4.390625 1.898438 4.410156 1.941406 C 4.441406 1.996094 4.441406 1.996094 4.5 2.03125 C 4.621094 2.050781 4.742188 2.054688 4.863281 2.058594 C 4.996094 2.058594 5.117188 2.082031 5.25 2.109375 C 5.503906 2.164062 5.671875 2.195312 5.90625 2.0625 C 5.960938 2.019531 6.019531 1.976562 6.070312 1.929688 C 6.695312 1.460938 7.484375 1.289062 8.253906 1.390625 C 8.835938 1.496094 9.324219 1.742188 9.765625 2.128906 C 9.917969 2.246094 10.058594 2.269531 10.25 2.25 C 10.339844 2.230469 10.429688 2.203125 10.515625 2.171875 C 10.792969 2.085938 11.046875 2.054688 11.335938 2.054688 C 11.363281 2.054688 11.394531 2.054688 11.425781 2.054688 C 11.644531 2.058594 11.847656 2.074219 12.0625 2.125 C 12.070312 2.101562 12.078125 2.078125 12.085938 2.054688 C 12.148438 1.914062 12.246094 1.804688 12.34375 1.6875 C 12.363281 1.664062 12.386719 1.636719 12.40625 1.609375 C 12.929688 0.996094 14.492188 0.0195312 15.3125 0.53125 Z M 15.3125 0.53125 "/>
<path style=" stroke:none;fill-rule:nonzero;fill:rgb(99.607843%,81.568629%,72.941178%);fill-opacity:1;" d="M 7.0625 5.875 C 7.160156 5.917969 7.160156 5.917969 7.265625 5.984375 C 7.730469 6.246094 8.234375 6.429688 8.75 6.5625 C 8.785156 6.574219 8.785156 6.574219 8.824219 6.582031 C 9.671875 6.8125 10.5 6.871094 11.367188 6.730469 C 11.464844 6.714844 11.558594 6.699219 11.65625 6.6875 C 12 7.429688 12.089844 8.234375 11.816406 9.011719 C 11.640625 9.496094 11.390625 9.875 11.03125 10.25 C 11.011719 10.269531 10.992188 10.292969 10.972656 10.3125 C 10.359375 10.96875 9.359375 11.390625 8.46875 11.4375 C 8.328125 11.441406 8.191406 11.441406 8.050781 11.441406 C 7.988281 11.441406 7.925781 11.445312 7.863281 11.445312 C 7.5 11.445312 7.152344 11.398438 6.804688 11.304688 C 6.765625 11.296875 6.765625 11.296875 6.726562 11.285156 C 6.066406 11.101562 5.496094 10.75 5 10.28125 C 4.96875 10.253906 4.96875 10.253906 4.933594 10.222656 C 4.4375 9.753906 4.0625 9 4.027344 8.3125 C 4.019531 8.003906 4.027344 7.707031 4.09375 7.40625 C 4.101562 7.375 4.105469 7.34375 4.113281 7.3125 C 4.160156 7.097656 4.234375 6.910156 4.34375 6.71875 C 4.371094 6.726562 4.371094 6.726562 4.398438 6.730469 C 4.425781 6.738281 4.449219 6.742188 4.476562 6.75 C 4.5 6.753906 4.523438 6.757812 4.546875 6.765625 C 4.574219 6.769531 4.597656 6.777344 4.625 6.78125 C 4.648438 6.785156 4.671875 6.792969 4.695312 6.796875 C 5.230469 6.886719 5.757812 6.777344 6.21875 6.5 C 6.296875 6.441406 6.367188 6.378906 6.4375 6.3125 C 6.457031 6.3125 6.480469 6.3125 6.5 6.3125 C 6.511719 6.285156 6.511719 6.285156 6.523438 6.257812 C 6.570312 6.175781 6.625 6.113281 6.6875 6.039062 C 6.71875 6.003906 6.71875 6.003906 6.753906 5.964844 C 6.851562 5.863281 6.921875 5.863281 7.0625 5.875 Z M 7.0625 5.875 "/>
<path style=" stroke:none;fill-rule:nonzero;fill:rgb(85.490197%,65.882355%,52.156866%);fill-opacity:1;" d="M 6.222656 12.6875 C 6.34375 12.757812 6.464844 12.835938 6.582031 12.914062 C 7.1875 13.304688 7.984375 13.367188 8.679688 13.222656 C 9.019531 13.140625 9.316406 12.992188 9.605469 12.796875 C 9.773438 12.6875 9.898438 12.617188 10.105469 12.640625 C 10.222656 12.664062 10.332031 12.691406 10.441406 12.726562 C 10.535156 12.75 10.625 12.757812 10.722656 12.765625 C 10.914062 12.796875 11 12.878906 11.121094 13.03125 C 11.507812 13.578125 11.964844 14.285156 11.921875 14.984375 C 11.882812 15.195312 11.785156 15.328125 11.621094 15.460938 C 11.460938 15.566406 11.316406 15.570312 11.128906 15.570312 C 11.089844 15.570312 11.089844 15.570312 11.046875 15.570312 C 10.953125 15.570312 10.859375 15.570312 10.765625 15.570312 C 10.699219 15.570312 10.632812 15.570312 10.566406 15.570312 C 10.386719 15.574219 10.203125 15.574219 10.023438 15.574219 C 9.871094 15.574219 9.71875 15.574219 9.570312 15.574219 C 9.210938 15.574219 8.855469 15.574219 8.496094 15.574219 C 8.128906 15.574219 7.761719 15.574219 7.390625 15.574219 C 7.078125 15.578125 6.761719 15.578125 6.445312 15.578125 C 6.253906 15.578125 6.066406 15.578125 5.878906 15.578125 C 5.699219 15.578125 5.523438 15.578125 5.34375 15.578125 C 5.277344 15.578125 5.214844 15.578125 5.148438 15.578125 C 5.058594 15.578125 4.96875 15.578125 4.882812 15.578125 C 4.855469 15.578125 4.828125 15.578125 4.804688 15.578125 C 4.597656 15.578125 4.4375 15.519531 4.28125 15.382812 C 4.265625 15.367188 4.253906 15.347656 4.238281 15.328125 C 4.222656 15.3125 4.210938 15.296875 4.195312 15.277344 C 4.0625 15.070312 4.058594 14.851562 4.109375 14.617188 C 4.273438 13.949219 4.601562 13.304688 5.09375 12.8125 C 5.15625 12.792969 5.15625 12.792969 5.234375 12.78125 C 5.261719 12.773438 5.289062 12.769531 5.316406 12.765625 C 5.34375 12.757812 5.375 12.753906 5.402344 12.746094 C 5.460938 12.738281 5.519531 12.726562 5.574219 12.714844 C 5.613281 12.707031 5.613281 12.707031 5.652344 12.703125 C 6.070312 12.613281 6.070312 12.613281 6.222656 12.6875 Z M 6.222656 12.6875 "/>
<path style=" stroke:none;fill-rule:nonzero;fill:rgb(36.862746%,78.039217%,51.372552%);fill-opacity:1;" d="M 3.71875 1.25 C 4.148438 1.554688 4.449219 1.910156 4.6875 2.375 C 4.699219 2.394531 4.707031 2.414062 4.71875 2.433594 C 4.90625 2.796875 5.023438 3.167969 5.125 3.5625 C 5.132812 3.59375 5.132812 3.59375 5.140625 3.628906 C 5.207031 3.894531 5.15625 4.117188 5.027344 4.351562 C 4.898438 4.542969 4.742188 4.675781 4.519531 4.734375 C 4.234375 4.789062 3.96875 4.738281 3.695312 4.65625 C 3.664062 4.644531 3.628906 4.632812 3.597656 4.625 C 2.660156 4.332031 1.875 3.785156 1.40625 2.90625 C 1.167969 2.429688 0.859375 1.691406 1.03125 1.15625 C 1.148438 0.910156 1.320312 0.75 1.5625 0.625 C 2.242188 0.40625 3.171875 0.878906 3.71875 1.25 Z M 3.71875 1.25 "/>
<path style=" stroke:none;fill-rule:nonzero;fill:rgb(38.039216%,44.313726%,63.921571%);fill-opacity:1;" d="M 7.722656 4.648438 C 7.746094 4.648438 7.769531 4.648438 7.792969 4.648438 C 7.84375 4.648438 7.890625 4.648438 7.941406 4.648438 C 8.015625 4.648438 8.089844 4.648438 8.164062 4.648438 C 9.117188 4.640625 10.132812 5.003906 10.84375 5.65625 C 10.867188 5.679688 10.867188 5.679688 10.894531 5.703125 C 11.144531 5.933594 11.347656 6.179688 11.53125 6.46875 C 11.550781 6.496094 11.566406 6.527344 11.585938 6.554688 C 11.625 6.625 11.625 6.625 11.625 6.6875 C 10.375 7.15625 8.757812 6.707031 7.597656 6.179688 C 7.449219 6.113281 7.300781 6.042969 7.15625 5.960938 C 7.050781 5.898438 6.996094 5.886719 6.875 5.90625 C 6.761719 5.972656 6.699219 6.058594 6.625 6.164062 C 6.339844 6.535156 5.917969 6.742188 5.464844 6.828125 C 5.097656 6.875 4.664062 6.902344 4.34375 6.6875 C 4.515625 6.371094 4.707031 6.109375 4.957031 5.855469 C 4.992188 5.820312 5.027344 5.78125 5.058594 5.746094 C 5.691406 5.046875 6.804688 4.65625 7.722656 4.648438 Z M 7.722656 4.648438 "/>
<path style=" stroke:none;fill-rule:nonzero;fill:rgb(58.431375%,84.313726%,55.29412%);fill-opacity:1;" d="M 15.394531 0.589844 C 15.609375 0.769531 15.726562 0.917969 15.765625 1.199219 C 15.804688 2.035156 15.355469 2.953125 14.8125 3.5625 C 14.625 3.765625 14.429688 3.960938 14.1875 4.09375 C 14.15625 4.09375 14.125 4.09375 14.09375 4.09375 C 14.082031 4.054688 14.082031 4.054688 14.070312 4.011719 C 13.929688 3.589844 13.714844 3.257812 13.40625 2.9375 C 13.390625 2.917969 13.371094 2.898438 13.355469 2.878906 C 13.09375 2.59375 12.730469 2.410156 12.375 2.28125 C 12.34375 2.269531 12.308594 2.257812 12.273438 2.242188 C 12.195312 2.214844 12.113281 2.183594 12.03125 2.15625 C 12.367188 1.4375 13.097656 0.933594 13.824219 0.667969 C 14.957031 0.269531 14.957031 0.269531 15.394531 0.589844 Z M 15.394531 0.589844 "/>
<path style=" stroke:none;fill-rule:nonzero;fill:rgb(81.960785%,53.725493%,43.529412%);fill-opacity:1;" d="M 6.222656 12.6875 C 6.34375 12.757812 6.464844 12.835938 6.582031 12.914062 C 7.1875 13.304688 7.984375 13.367188 8.679688 13.222656 C 9.019531 13.140625 9.316406 12.992188 9.605469 12.796875 C 9.773438 12.6875 9.898438 12.617188 10.105469 12.640625 C 10.222656 12.664062 10.332031 12.691406 10.441406 12.726562 C 10.535156 12.75 10.625 12.757812 10.722656 12.765625 C 10.914062 12.796875 11 12.878906 11.121094 13.027344 C 11.242188 13.203125 11.359375 13.378906 11.46875 13.5625 C 11.496094 13.605469 11.496094 13.605469 11.523438 13.648438 C 11.5625 13.71875 11.5625 13.71875 11.5625 13.8125 C 11.398438 13.867188 11.226562 13.851562 11.054688 13.851562 C 10.996094 13.851562 10.996094 13.851562 10.9375 13.851562 C 10.71875 13.851562 10.53125 13.835938 10.320312 13.777344 C 10.0625 13.71875 9.917969 13.820312 9.703125 13.949219 C 9.554688 14.039062 9.398438 14.097656 9.234375 14.152344 C 9.195312 14.167969 9.195312 14.167969 9.15625 14.179688 C 8.296875 14.46875 7.257812 14.429688 6.4375 14.03125 C 6.394531 14.003906 6.351562 13.980469 6.308594 13.953125 C 6.039062 13.789062 5.875 13.722656 5.566406 13.796875 C 5.542969 13.800781 5.519531 13.808594 5.496094 13.8125 C 5.324219 13.851562 5.15625 13.851562 4.976562 13.851562 C 4.949219 13.851562 4.921875 13.851562 4.890625 13.851562 C 4.738281 13.847656 4.589844 13.839844 4.4375 13.8125 C 4.5 13.476562 4.835938 13.03125 5.09375 12.8125 C 5.160156 12.789062 5.160156 12.789062 5.234375 12.777344 C 5.265625 12.773438 5.292969 12.765625 5.320312 12.761719 C 5.363281 12.753906 5.363281 12.753906 5.40625 12.746094 C 5.464844 12.734375 5.519531 12.726562 5.574219 12.714844 C 5.601562 12.710938 5.625 12.707031 5.652344 12.699219 C 6.070312 12.617188 6.070312 12.617188 6.222656 12.6875 Z M 6.222656 12.6875 "/>
<path style=" stroke:none;fill-rule:nonzero;fill:rgb(36.862746%,78.039217%,51.372552%);fill-opacity:1;" d="M 12.875 1.40625 C 12.957031 1.441406 13.03125 1.476562 13.109375 1.515625 C 13.132812 1.527344 13.15625 1.539062 13.175781 1.546875 C 13.363281 1.644531 13.53125 1.757812 13.699219 1.882812 C 13.78125 1.949219 13.78125 1.949219 13.90625 1.9375 C 13.96875 1.882812 14.023438 1.828125 14.082031 1.765625 C 14.273438 1.566406 14.273438 1.566406 14.421875 1.554688 C 14.53125 1.5625 14.53125 1.5625 14.59375 1.59375 C 14.644531 1.695312 14.648438 1.796875 14.625 1.90625 C 14.574219 1.984375 14.507812 2.042969 14.4375 2.101562 C 14.367188 2.160156 14.308594 2.214844 14.25 2.28125 C 14.265625 2.410156 14.34375 2.496094 14.425781 2.59375 C 14.640625 2.863281 14.8125 3.136719 14.90625 3.46875 C 14.429688 3.964844 14.429688 3.964844 14.1875 4.09375 C 14.15625 4.09375 14.125 4.09375 14.09375 4.09375 C 14.082031 4.054688 14.082031 4.054688 14.070312 4.011719 C 13.929688 3.589844 13.714844 3.257812 13.40625 2.9375 C 13.390625 2.917969 13.371094 2.898438 13.355469 2.878906 C 13.09375 2.59375 12.730469 2.410156 12.375 2.28125 C 12.34375 2.269531 12.308594 2.257812 12.273438 2.242188 C 12.195312 2.214844 12.113281 2.183594 12.03125 2.15625 C 12.117188 1.972656 12.230469 1.816406 12.359375 1.660156 C 12.375 1.644531 12.386719 1.625 12.402344 1.605469 C 12.550781 1.4375 12.648438 1.339844 12.875 1.40625 Z M 12.875 1.40625 "/>
<path style=" stroke:none;fill-rule:nonzero;fill:rgb(91.764706%,61.960787%,65.882355%);fill-opacity:1;" d="M 10.125 7.59375 C 10.207031 7.65625 10.207031 7.65625 10.28125 7.75 C 10.292969 7.839844 10.296875 7.90625 10.289062 7.992188 C 10.289062 8.015625 10.289062 8.039062 10.289062 8.058594 C 10.285156 8.113281 10.285156 8.164062 10.28125 8.21875 C 10.3125 8.207031 10.34375 8.199219 10.375 8.1875 C 10.734375 8.160156 11.027344 8.195312 11.3125 8.429688 C 11.46875 8.582031 11.550781 8.71875 11.578125 8.9375 C 11.5625 9.164062 11.46875 9.328125 11.304688 9.480469 C 11.054688 9.6875 10.796875 9.734375 10.476562 9.730469 C 10.191406 9.699219 9.9375 9.558594 9.75 9.34375 C 9.636719 9.160156 9.625 8.960938 9.65625 8.75 C 9.695312 8.65625 9.75 8.578125 9.8125 8.5 C 9.832031 8.46875 9.855469 8.4375 9.875 8.40625 C 9.855469 8.375 9.832031 8.34375 9.8125 8.3125 C 9.796875 8.214844 9.800781 8.117188 9.800781 8.015625 C 9.800781 7.992188 9.800781 7.964844 9.796875 7.9375 C 9.796875 7.738281 9.796875 7.738281 9.871094 7.640625 C 9.964844 7.578125 10.015625 7.574219 10.125 7.59375 Z M 10.125 7.59375 "/>
<path style=" stroke:none;fill-rule:nonzero;fill:rgb(91.764706%,61.960787%,65.882355%);fill-opacity:1;" d="M 5.988281 7.59375 C 6.09375 7.625 6.125 7.636719 6.1875 7.71875 C 6.199219 7.78125 6.199219 7.78125 6.199219 7.851562 C 6.199219 7.878906 6.199219 7.902344 6.195312 7.929688 C 6.195312 7.957031 6.195312 7.984375 6.195312 8.011719 C 6.195312 8.039062 6.195312 8.066406 6.195312 8.09375 C 6.195312 8.199219 6.191406 8.300781 6.167969 8.40625 C 6.160156 8.4375 6.160156 8.4375 6.15625 8.46875 C 6.210938 8.550781 6.210938 8.550781 6.28125 8.625 C 6.378906 8.78125 6.363281 8.949219 6.34375 9.125 C 6.289062 9.320312 6.167969 9.457031 6 9.5625 C 5.695312 9.714844 5.421875 9.769531 5.089844 9.683594 C 4.816406 9.589844 4.628906 9.4375 4.476562 9.195312 C 4.417969 9.042969 4.410156 8.902344 4.457031 8.746094 C 4.578125 8.476562 4.777344 8.320312 5.050781 8.214844 C 5.261719 8.160156 5.511719 8.148438 5.71875 8.21875 C 5.714844 8.171875 5.714844 8.171875 5.714844 8.121094 C 5.710938 8.078125 5.710938 8.035156 5.710938 7.992188 C 5.707031 7.972656 5.707031 7.953125 5.703125 7.929688 C 5.703125 7.808594 5.714844 7.753906 5.789062 7.65625 C 5.875 7.59375 5.875 7.59375 5.988281 7.59375 Z M 5.988281 7.59375 "/>
<path style=" stroke:none;fill-rule:nonzero;fill:rgb(58.431375%,83.92157%,54.901963%);fill-opacity:1;" d="M 2.40625 1.6875 C 2.460938 1.726562 2.460938 1.726562 2.519531 1.78125 C 2.539062 1.800781 2.5625 1.820312 2.585938 1.839844 C 2.796875 2.039062 3.003906 2.238281 3.210938 2.441406 C 3.269531 2.5 3.328125 2.558594 3.386719 2.617188 C 3.472656 2.699219 3.558594 2.78125 3.640625 2.867188 C 3.667969 2.890625 3.695312 2.917969 3.722656 2.941406 C 3.921875 3.144531 3.921875 3.144531 3.925781 3.292969 C 3.90625 3.40625 3.90625 3.40625 3.859375 3.484375 C 3.746094 3.550781 3.683594 3.527344 3.5625 3.5 C 3.480469 3.441406 3.480469 3.441406 3.402344 3.367188 C 3.375 3.335938 3.34375 3.308594 3.3125 3.277344 C 3.28125 3.246094 3.25 3.214844 3.21875 3.183594 C 3.1875 3.152344 3.15625 3.121094 3.121094 3.085938 C 3.054688 3.019531 2.984375 2.953125 2.917969 2.882812 C 2.832031 2.796875 2.746094 2.710938 2.65625 2.625 C 2.589844 2.558594 2.523438 2.492188 2.457031 2.425781 C 2.421875 2.390625 2.390625 2.359375 2.359375 2.328125 C 2.074219 2.050781 2.074219 2.050781 2.070312 1.886719 C 2.09375 1.78125 2.09375 1.78125 2.144531 1.71875 C 2.246094 1.675781 2.296875 1.667969 2.40625 1.6875 Z M 2.40625 1.6875 "/>
<path style=" stroke:none;fill-rule:nonzero;fill:rgb(32.549021%,37.254903%,43.921569%);fill-opacity:1;" d="M 7.628906 8.136719 C 7.660156 8.136719 7.6875 8.136719 7.714844 8.136719 C 7.773438 8.136719 7.832031 8.136719 7.890625 8.136719 C 7.980469 8.136719 8.070312 8.136719 8.160156 8.136719 C 8.21875 8.136719 8.277344 8.136719 8.332031 8.136719 C 8.359375 8.136719 8.386719 8.136719 8.414062 8.132812 C 8.550781 8.136719 8.609375 8.144531 8.722656 8.230469 C 8.78125 8.3125 8.78125 8.3125 8.785156 8.40625 C 8.742188 8.523438 8.699219 8.558594 8.59375 8.625 C 8.503906 8.644531 8.414062 8.640625 8.324219 8.640625 C 8.296875 8.640625 8.273438 8.640625 8.246094 8.640625 C 8.191406 8.640625 8.136719 8.640625 8.082031 8.640625 C 8 8.640625 7.917969 8.640625 7.835938 8.640625 C 7.78125 8.640625 7.730469 8.640625 7.675781 8.640625 C 7.652344 8.640625 7.625 8.640625 7.601562 8.640625 C 7.480469 8.640625 7.417969 8.632812 7.3125 8.566406 C 7.230469 8.480469 7.214844 8.429688 7.21875 8.3125 C 7.320312 8.125 7.4375 8.132812 7.628906 8.136719 Z M 7.628906 8.136719 "/>
<path style=" stroke:none;fill-rule:nonzero;fill:rgb(32.941177%,37.254903%,44.313726%);fill-opacity:1;" d="M 10.125 7.59375 C 10.207031 7.65625 10.269531 7.707031 10.296875 7.808594 C 10.300781 7.878906 10.300781 7.945312 10.296875 8.015625 C 10.300781 8.039062 10.300781 8.0625 10.300781 8.085938 C 10.296875 8.207031 10.289062 8.269531 10.222656 8.375 C 10.15625 8.4375 10.15625 8.4375 10.046875 8.453125 C 9.9375 8.4375 9.9375 8.4375 9.867188 8.390625 C 9.785156 8.273438 9.792969 8.160156 9.796875 8.015625 C 9.796875 7.988281 9.796875 7.960938 9.796875 7.933594 C 9.796875 7.742188 9.796875 7.742188 9.871094 7.640625 C 9.964844 7.574219 10.015625 7.574219 10.125 7.59375 Z M 10.125 7.59375 "/>
<path style=" stroke:none;fill-rule:nonzero;fill:rgb(32.941177%,37.254903%,44.313726%);fill-opacity:1;" d="M 5.988281 7.59375 C 6.09375 7.625 6.125 7.636719 6.1875 7.71875 C 6.207031 7.816406 6.203125 7.914062 6.203125 8.015625 C 6.203125 8.039062 6.203125 8.066406 6.203125 8.09375 C 6.203125 8.292969 6.203125 8.292969 6.128906 8.390625 C 6.035156 8.453125 5.984375 8.457031 5.875 8.4375 C 5.792969 8.375 5.730469 8.324219 5.703125 8.222656 C 5.699219 8.152344 5.699219 8.085938 5.699219 8.015625 C 5.699219 7.992188 5.699219 7.96875 5.699219 7.945312 C 5.699219 7.8125 5.710938 7.761719 5.789062 7.65625 C 5.875 7.59375 5.875 7.59375 5.988281 7.59375 Z M 5.988281 7.59375 "/>
<path style=" stroke:none;fill-rule:nonzero;fill:rgb(41.568628%,79.607844%,53.725493%);fill-opacity:1;" d="M 12.59375 1.40625 C 12.625 1.417969 12.65625 1.425781 12.6875 1.4375 C 12.554688 1.570312 12.417969 1.707031 12.28125 1.84375 C 12.28125 1.714844 12.351562 1.660156 12.4375 1.570312 C 12.453125 1.554688 12.46875 1.539062 12.484375 1.523438 C 12.519531 1.484375 12.554688 1.445312 12.59375 1.40625 Z M 12.59375 1.40625 "/>
</g>
</svg>
