<?xml version="1.0" encoding="UTF-8"?>
<svg version="1.1" xmlns="http://www.w3.org/2000/svg" width="512" height="512">
<path d="M0 0 C6.54175354 4.80923434 12.27435473 9.82715225 14 18 C17.12894815 41.96997782 4.91908319 69.86236489 -9.0859375 88.82421875 C-17.24001924 99.08119526 -26.16583563 107.6261771 -37 115 C-36.59879494 116.87836914 -36.17823556 118.75260837 -35.75 120.625 C-35.51796875 121.66914063 -35.2859375 122.71328125 -35.046875 123.7890625 C-32.69001533 131.01793805 -28.88997316 134.07936192 -22.5625 137.625 C0.14654552 151.11472723 14.35005061 171.71306797 21 197 C26.08643088 219.07098591 21.2191873 242.69730523 10 262 C-0.86559398 278.92516698 -16.15568804 291.35101859 -34.31445312 299.69335938 C-39.36436424 302.14917073 -42.01386763 304.69184958 -44 310 C-44.89380449 313.63371271 -44.89380449 313.63371271 -45.375 317.4375 C-48.37172345 335.75271811 -56.74377619 351.13459573 -69 365 C-69.55171875 365.63550781 -70.1034375 366.27101563 -70.671875 366.92578125 C-88.42505147 386.04120641 -113.94142771 392.85028893 -139 395 C-138.1646875 395.96486328 -138.1646875 395.96486328 -137.3125 396.94921875 C-131.42808102 403.91708649 -126.50771483 411.05607633 -122 419 C-121.3915625 420.06734375 -120.783125 421.1346875 -120.15625 422.234375 C-113.34472234 434.96117669 -105.42218843 452.73919543 -109.66796875 467.2890625 C-112.14031795 473.05427854 -116.52172753 477.21546253 -122.06595898 480.05994606 C-126.03653724 481.33210201 -129.6787372 481.28292576 -133.82356262 481.26742554 C-135.15682564 481.27422221 -135.15682564 481.27422221 -136.51702327 481.28115618 C-139.49553255 481.29381689 -142.47385936 481.29217872 -145.45239258 481.29052734 C-147.58790828 481.29651156 -149.72342181 481.30331686 -151.8589325 481.31088257 C-157.66065298 481.32856093 -163.46231449 481.33323874 -169.26405931 481.33451414 C-174.10746722 481.33641304 -178.95086139 481.34377051 -183.79426402 481.35085833 C-195.22198062 481.36714698 -206.6496657 481.37202686 -218.07739258 481.37060547 C-229.8647548 481.36940399 -241.65193393 481.39050606 -253.43924981 481.4220928 C-263.55999514 481.44824692 -273.68068063 481.45897312 -283.80145949 481.45769465 C-289.84579667 481.45718475 -295.88997116 481.46288347 -301.93427467 481.48405075 C-307.61998233 481.50341833 -313.30537188 481.5035675 -318.99109077 481.48901749 C-321.07600112 481.48692645 -323.16093131 481.49164779 -325.24580765 481.5037384 C-328.09607377 481.51919497 -330.94524362 481.50987979 -333.79548645 481.49447632 C-334.61699985 481.50476344 -335.43851325 481.51505057 -336.28492099 481.52564943 C-342.84060419 481.44756793 -348.0281891 479.56447775 -353.0234375 475.25390625 C-353.46945312 474.69574219 -353.91546875 474.13757813 -354.375 473.5625 C-354.83648437 473.00691406 -355.29796875 472.45132812 -355.7734375 471.87890625 C-360.06121854 465.31068115 -360.09788217 458.27326532 -358.53125 450.74853516 C-353.32597834 429.56359316 -343.10984919 411.54147853 -329 395 C-329.58265625 394.93530518 -330.1653125 394.87061035 -330.765625 394.80395508 C-358.68680379 391.60739717 -384.90691387 383.24357244 -403.20654297 360.50048828 C-414.11824768 346.51483117 -421.41237704 330.74540415 -423.21484375 312.94921875 C-424.54416119 307.95601144 -426.6965921 303.64512908 -430.98022461 300.58569336 C-433.28311345 299.33070682 -435.61424322 298.21388265 -438 297.125 C-462.084446 285.28536076 -478.0639219 266.38984363 -487.3203125 241.44140625 C-493.90652401 219.6792738 -491.46808083 195.53392563 -481.06225586 175.51831055 C-472.1764688 159.06474359 -460.09066394 145.92417282 -443.67163086 136.8515625 C-437.22351326 133.09809836 -433.75448746 128.16873749 -431.70703125 121 C-431.39402982 119.67006863 -431.09574133 118.33658584 -430.8125 117 C-430.50651042 115.66666667 -430.20052083 114.33333333 -429.89453125 113 C-429.75587646 112.34443115 -429.61722168 111.6888623 -429.47436523 111.01342773 C-429 109 -429 109 -428.30883789 106.87915039 C-427.51771672 104.53543378 -427.51771672 104.53543378 -427 101 C-428.37563945 98.42203856 -428.37563945 98.42203856 -430.8125 96.4375 C-446.74082211 80.43566255 -457.71981748 52.81549946 -458.375 30.3125 C-458.31389625 21.98493146 -455.91688442 16.54756213 -450.6875 10.1875 C-442.52333638 3.54225054 -435.82914694 0.98971026 -425.1875 1.72607422 C-396.99330977 5.25664134 -369.80396741 19.90119504 -351 41 C-350.26837152 42.34172398 -349.55620409 43.69448521 -348.875 45.0625 C-347.8384943 46.84512409 -347.8384943 46.84512409 -346 48 C-342.08900739 48.638061 -338.30564572 48.7597354 -334.3515625 48.82421875 C-330.06678087 48.91894706 -326.18751783 49.64359579 -322 50.5625 C-313.85009739 52.30217427 -308.51974044 53.19333897 -301 49 C-299.20293788 47.63810091 -297.43308249 46.23978525 -295.6875 44.8125 C-275.80925498 29.68828384 -250.46056785 24.22262051 -225.85546875 27.4609375 C-207.31208511 30.81809961 -191.62458033 38.70349221 -177.4375 51.1171875 C-172.56523438 54.88070037 -168.07927532 55.6308028 -162 55 C-159.08218381 54.36674323 -156.27256565 53.49383831 -153.4375 52.5625 C-144.65642076 49.74085708 -136.52932156 48.80619682 -127.3125 48.8125 C-126.3416748 48.81185547 -125.37084961 48.81121094 -124.37060547 48.81054688 C-117.39064952 48.86187866 -110.8130098 49.3901749 -104 51 C-103.73316406 50.26136719 -103.46632813 49.52273437 -103.19140625 48.76171875 C-101.24268115 44.24451007 -98.12307565 40.76447507 -95 37 C-94.33871094 36.19046875 -93.67742187 35.3809375 -92.99609375 34.546875 C-76.20773717 14.88316453 -26.2892307 -16.39823301 0 0 Z " fill="#96D68D" transform="translate(490,17)"/>
<path d="M0 0 C3.09375 1.43359375 3.09375 1.43359375 6.5 3.4375 C21.38635406 11.81273178 37.49627678 17.72655091 54 22 C55.17151611 22.31662598 55.17151611 22.31662598 56.36669922 22.63964844 C83.51258141 29.93929139 110.05448058 31.92611964 137.75976562 27.36376953 C140.83409623 26.86455935 143.91521494 26.42936873 147 26 C157.98065506 49.70257905 160.88038818 75.46273915 152.17041016 100.37255859 C146.46458512 115.90044341 138.46196653 128.02079671 127 140 C126.38898438 140.67417969 125.77796875 141.34835937 125.1484375 142.04296875 C105.44124335 163.04999911 73.47292747 176.4761095 45 178 C40.5458455 178.13344184 36.09576424 178.18584431 31.63964844 178.18530273 C29.63454948 178.18748958 27.63000244 178.20572665 25.625 178.22460938 C13.98853164 178.24182309 2.92835551 176.79157322 -8.3125 173.8125 C-9.51326172 173.49430298 -9.51326172 173.49430298 -10.73828125 173.16967773 C-31.85717679 167.3072628 -50.13291471 155.96494331 -66 141 C-67.03253906 140.06414062 -67.03253906 140.06414062 -68.0859375 139.109375 C-84.0470544 124.09456938 -95.9595722 99.99430816 -97.10668945 77.94970703 C-97.37180809 68.12869855 -97.1769313 58.61931519 -95 49 C-94.79375 47.99582031 -94.5875 46.99164063 -94.375 45.95703125 C-92.83839946 39.06852086 -90.44425555 33.15337355 -87 27 C-86.11248047 27.19916016 -86.11248047 27.19916016 -85.20703125 27.40234375 C-84.41683594 27.57894531 -83.62664062 27.75554687 -82.8125 27.9375 C-82.03519531 28.11152344 -81.25789062 28.28554687 -80.45703125 28.46484375 C-79.64621094 28.64144531 -78.83539063 28.81804687 -78 29 C-77.24976563 29.18175781 -76.49953125 29.36351562 -75.7265625 29.55078125 C-58.56964933 32.3774933 -41.7898708 28.88516953 -27 20 C-24.50800846 18.11350062 -22.28983999 16.13371453 -20 14 C-19.34 14 -18.68 14 -18 14 C-17.62875 13.15501953 -17.62875 13.15501953 -17.25 12.29296875 C-15.79087285 9.61638239 -14.03712424 7.57805177 -12 5.3125 C-10.948125 4.13107422 -10.948125 4.13107422 -9.875 2.92578125 C-6.70722414 -0.32778854 -4.4583029 -0.37683274 0 0 Z " fill="#FED0BA" transform="translate(226,188)"/>
<path d="M0 0 C3.94607398 2.26071739 7.73795526 4.75215336 11.55175781 7.22705078 C30.87951253 19.73055087 56.46673825 21.79465836 78.66503906 17.09033203 C89.55278209 14.46786485 99.03258799 9.75242189 108.29394531 3.55908203 C113.67154165 0.00439971 117.68252744 -2.23289608 124.34863281 -1.54638672 C127.9883255 -0.77751547 131.54601844 0.11608369 135.09472656 1.23486328 C138.10430889 2.04657636 140.94292753 2.28789036 144.04394531 2.55908203 C150.20814063 3.55330708 152.95370826 6.16425267 156.77050781 10.97314453 C169.1997683 28.46450383 183.78724331 51.13010251 182.36816406 73.52001953 C181.14230837 80.27821524 178.0117541 84.43921418 172.79785156 88.77001953 C167.64123702 92.13629181 163.06585622 92.28633509 157.09538269 92.26400757 C155.76211967 92.27080424 155.76211967 92.27080424 154.40192205 92.27773821 C151.42341277 92.29039892 148.44508595 92.28876076 145.46655273 92.28710938 C143.33103703 92.29309359 141.1955235 92.29989889 139.06001282 92.3074646 C133.25829233 92.32514297 127.45663082 92.32982077 121.65488601 92.33109617 C116.81147809 92.33299507 111.96808392 92.34035254 107.12468129 92.34744036 C95.69696469 92.36372901 84.26927961 92.36860889 72.84155273 92.3671875 C61.05419052 92.36598602 49.26701139 92.38708809 37.4796955 92.41867483 C27.35895018 92.44482895 17.23826468 92.45555515 7.11748582 92.45427668 C1.07314865 92.45376678 -4.97102585 92.4594655 -11.01532936 92.48063278 C-16.70103702 92.50000036 -22.38642657 92.50014953 -28.07214546 92.48559952 C-30.15705581 92.48350848 -32.24198599 92.48822982 -34.32686234 92.50032043 C-37.17712845 92.515777 -40.0262983 92.50646182 -42.87654114 92.49105835 C-43.69805454 92.50134548 -44.51956793 92.5116326 -45.36597568 92.52223146 C-51.92165888 92.44414996 -57.10924378 90.56105978 -62.10449219 86.25048828 C-62.55050781 85.69232422 -62.99652344 85.13416016 -63.45605469 84.55908203 C-63.91753906 84.00349609 -64.37902344 83.44791016 -64.85449219 82.87548828 C-69.14227323 76.30726318 -69.17893686 69.26984735 -67.61230469 61.74511719 C-62.34884048 40.32333729 -51.77266717 19.68819451 -36.08105469 3.99658203 C-34.06567383 3.41821289 -34.06567383 3.41821289 -31.61621094 2.96142578 C-30.73384766 2.79191406 -29.85148437 2.62240234 -28.94238281 2.44775391 C-28.01876953 2.27824219 -27.09515625 2.10873047 -26.14355469 1.93408203 C-24.32163642 1.59063703 -22.50000804 1.24564974 -20.67871094 0.89892578 C-19.46453491 0.67450806 -19.46453491 0.67450806 -18.22583008 0.44555664 C-4.87305969 -2.34963343 -4.87305969 -2.34963343 0 0 Z " fill="#DAA885" transform="translate(199.0810546875,406.00341796875)"/>
<path d="M0 0 C13.70155992 9.76236144 23.3842479 21.16087646 31 36 C31.31372559 36.60070312 31.62745117 37.20140625 31.95068359 37.8203125 C37.97297923 49.45850925 41.77429881 61.32142617 45 74 C45.27287842 75.04546997 45.27287842 75.04546997 45.55126953 76.11206055 C47.56457617 84.58262649 46.01798382 91.80725495 41.83203125 99.296875 C37.73645556 105.33981397 32.73521154 109.6271723 25.58764648 111.50585938 C16.44588346 113.25158334 7.99855262 111.67366692 -0.75 108.9375 C-1.7920459 108.62022949 -2.8340918 108.30295898 -3.90771484 107.97607422 C-33.87526792 98.61612982 -59.03639459 81.12262744 -74 53 C-81.65792286 37.71952575 -91.51035034 14.18608115 -86.05859375 -2.9609375 C-82.26931762 -10.87209081 -76.74391008 -15.99718366 -69 -20 C-47.30351039 -26.96594861 -17.51581948 -11.83348158 0 0 Z " fill="#5EC783" transform="translate(119,40)"/>
<path d="M0 0 C0.74979126 -0.00570007 1.49958252 -0.01140015 2.27209473 -0.01727295 C3.85195536 -0.02665785 5.431835 -0.03323077 7.01171875 -0.03710938 C9.372765 -0.04673844 11.73290999 -0.07779186 14.09375 -0.109375 C44.7014414 -0.32160584 77.21300363 11.30574705 99.90625 32.203125 C100.68911377 32.92242187 100.68911377 32.92242187 101.48779297 33.65625 C109.5258955 41.12609712 116.06714498 48.90100099 121.90625 58.203125 C122.48117187 59.110625 123.05609375 60.018125 123.6484375 60.953125 C124.90625 63.203125 124.90625 63.203125 124.90625 65.203125 C84.89320156 80.21617743 33.10041207 65.82616684 -3.96875 49.015625 C-8.76160365 46.82358743 -13.48743685 44.60985801 -18.03125 41.93359375 C-21.48864156 39.97999112 -23.19434068 39.52496686 -27.09375 40.203125 C-30.68737566 42.3224427 -32.75465 45.07247234 -35.15625 48.390625 C-44.21407464 60.31708825 -57.77589472 66.92324899 -72.2109375 69.69921875 C-83.97459005 71.22588996 -97.83146116 72.04465089 -108.09375 65.203125 C-102.57858183 55.13376494 -96.52766806 46.70486225 -88.42626953 38.56347656 C-87.30917075 37.42304519 -86.24002097 36.2359146 -85.18359375 35.0390625 C-64.99968658 12.69423588 -29.34950143 0.17921933 0 0 Z " fill="#6171A3" transform="translate(247.09375,148.796875)"/>
<path d="M0 0 C6.89211391 5.74844436 10.70266541 10.51384804 11.87109375 19.46484375 C13.17779422 46.19775759 -1.13160444 75.6206012 -18.56640625 95.11328125 C-24.52532115 101.60526202 -30.79683628 107.80794156 -38.56640625 112.11328125 C-39.55640625 112.11328125 -40.54640625 112.11328125 -41.56640625 112.11328125 C-41.96859375 110.82357422 -41.96859375 110.82357422 -42.37890625 109.5078125 C-46.84665619 96.03107994 -53.65367234 85.3346534 -63.56640625 75.11328125 C-64.10523438 74.50097656 -64.6440625 73.88867188 -65.19921875 73.2578125 C-73.51324942 64.12909038 -85.13172226 58.28809205 -96.56640625 54.11328125 C-97.61957031 53.72140625 -98.67273438 53.32953125 -99.7578125 52.92578125 C-102.35483015 51.97055637 -104.95660328 51.03287718 -107.56640625 50.11328125 C-96.81165005 27.1183053 -73.40752258 10.94707103 -50.140625 2.453125 C-13.91087135 -10.22671364 -13.91087135 -10.22671364 0 0 Z " fill="#95D78D" transform="translate(492.56640625,18.88671875)"/>
<path d="M0 0 C3.94607398 2.26071739 7.73795526 4.75215336 11.55175781 7.22705078 C30.87951253 19.73055087 56.46673825 21.79465836 78.66503906 17.09033203 C89.55278209 14.46786485 99.03258799 9.75242189 108.29394531 3.55908203 C113.67154165 0.00439971 117.68252744 -2.23289608 124.34863281 -1.54638672 C127.9883255 -0.77751547 131.54601844 0.11608369 135.09472656 1.23486328 C138.10430889 2.04657636 140.94292753 2.28789036 144.04394531 2.55908203 C150.18970959 3.55033433 152.93031719 6.14913208 156.75097656 10.93017578 C160.6853112 16.49495541 164.3785041 22.1740492 167.91894531 27.99658203 C168.7890625 29.34816406 168.7890625 29.34816406 169.67675781 30.72705078 C170.91894531 32.99658203 170.91894531 32.99658203 170.91894531 35.99658203 C165.70734633 37.73378169 160.18683816 37.22931924 154.73144531 37.24658203 C152.82238403 37.26120483 152.82238403 37.26120483 150.87475586 37.27612305 C143.97258982 37.25808794 137.85841757 36.80769443 131.23144531 34.93408203 C122.93209762 33.04186596 118.33065051 36.24949121 111.43457031 40.43017578 C106.65191895 43.28595005 101.67996054 45.14682379 96.41894531 46.93408203 C95.20029785 47.35633057 95.20029785 47.35633057 93.95703125 47.78710938 C66.48098793 57.00774958 33.13993402 55.79901382 6.91894531 42.99658203 C5.5294222 42.18373585 4.15065904 41.35226595 2.78222656 40.50439453 C-5.78813057 35.24513139 -11.02804804 33.08098675 -20.97436523 35.4621582 C-21.72113525 35.64238525 -22.46790527 35.8226123 -23.23730469 36.00830078 C-28.74455868 37.2897257 -34.13621168 37.30332281 -39.76855469 37.24658203 C-40.68918701 37.24263428 -41.60981934 37.23868652 -42.55834961 37.23461914 C-47.48997171 37.1698783 -52.21841066 36.82143546 -57.08105469 35.99658203 C-55.04274837 25.30176495 -44.36841213 11.05313164 -36.08105469 3.99658203 C-33.95214844 3.3046875 -33.95214844 3.3046875 -31.51855469 2.86376953 C-30.63941406 2.69748047 -29.76027344 2.53119141 -28.85449219 2.35986328 C-27.48164063 2.11816406 -27.48164063 2.11816406 -26.08105469 1.87158203 C-24.26828315 1.53711292 -22.45577082 1.201235 -20.64355469 0.86376953 C-19.84046875 0.72052246 -19.03738281 0.57727539 -18.20996094 0.4296875 C-4.77671191 -2.30317761 -4.77671191 -2.30317761 0 0 Z " fill="#D1896F" transform="translate(199.0810546875,406.00341796875)"/>
<path d="M0 0 C2.5969782 1.09581857 5.06010908 2.2225983 7.5625 3.5 C8.25633789 3.84804688 8.95017578 4.19609375 9.66503906 4.5546875 C15.62419256 7.6282701 20.97446037 11.29045754 26.328125 15.3125 C29.03696696 17.35599533 29.03696696 17.35599533 33 17 C35.02766093 15.23669028 36.80938692 13.52132321 38.625 11.5625 C44.76647263 5.08971108 44.76647263 5.08971108 49.4375 4.75 C53 5 53 5 54.9375 6 C56.65811135 9.23879784 56.69823011 12.47571726 56 16 C54.33018046 18.49743208 52.22278523 20.31963616 49.9375 22.25 C47.80293565 24.09790255 45.92680831 25.91535423 44 28 C44.44902724 32.17457407 47.05809659 34.8576187 49.625 38 C56.44120866 46.61895346 61.98276961 55.35095155 65 66 C49.76908058 81.87548811 49.76908058 81.87548811 42 86 C41.01 86 40.02 86 39 86 C38.5978125 84.71029297 38.5978125 84.71029297 38.1875 83.39453125 C33.71975006 69.91779869 26.91273391 59.22137215 17 49 C16.46117187 48.38769531 15.92234375 47.77539062 15.3671875 47.14453125 C7.05315683 38.01580913 -4.56531601 32.1748108 -16 28 C-17.05316406 27.608125 -18.10632813 27.21625 -19.19140625 26.8125 C-21.7884239 25.85727512 -24.39019703 24.91959593 -27 24 C-24.23715945 18.0927111 -20.66934691 13.09708405 -16.5 8.125 C-16.03746826 7.56594971 -15.57493652 7.00689941 -15.09838867 6.4309082 C-10.43298063 0.98449219 -7.24567904 -2.07787088 0 0 Z " fill="#5EC783" transform="translate(412,45)"/>
<path d="M0 0 C2.671875 2.046875 2.671875 2.046875 5 5 C5.36771245 7.8387401 5.48630804 10.01820151 5.3125 12.8125 C5.28994141 13.50537109 5.26738281 14.19824219 5.24414062 14.91210938 C5.18562661 16.60901573 5.0959548 18.30479861 5 20 C5.99 19.67 6.98 19.34 8 19 C19.48529724 18.07815377 28.89664539 19.2699444 37.9375 26.75 C42.99122275 31.64069944 45.61186502 35.94343702 46.5 42.9375 C46.03126664 50.19576499 42.94461828 55.47672938 37.6875 60.375 C29.68905882 66.97043592 21.45832231 68.45409417 11.2265625 68.33984375 C2.16393083 67.38530506 -6.05723705 62.8661998 -12 56 C-15.67662601 50.1403773 -15.98284853 43.73697989 -15 37 C-13.70006875 33.98608532 -12.03472749 31.55882397 -10 29 C-9.34 28.01 -8.68 27.02 -8 26 C-8.66 25.01 -9.32 24.02 -10 23 C-10.45000334 19.86926251 -10.37028046 16.72223347 -10.375 13.5625 C-10.39949219 12.70333984 -10.42398437 11.84417969 -10.44921875 10.95898438 C-10.47850902 4.66645842 -10.47850902 4.66645842 -8.16015625 1.4375 C-5.15749243 -0.56065603 -3.53842943 -0.64991561 0 0 Z " fill="#EA9EA8" transform="translate(324,243)"/>
<path d="M0 0 C3.32272828 0.98451208 4.34294347 1.35499279 6.375 4 C6.73144531 6.00537109 6.73144531 6.00537109 6.703125 8.2734375 C6.69796875 9.0984375 6.6928125 9.9234375 6.6875 10.7734375 C6.666875 11.63195312 6.64625 12.49046875 6.625 13.375 C6.61984375 14.22578125 6.6146875 15.0765625 6.609375 15.953125 C6.56643374 19.39916144 6.46837527 22.56328212 5.74609375 25.94140625 C5.56240234 26.96041016 5.56240234 26.96041016 5.375 28 C7.15331634 30.61881834 7.15331634 30.61881834 9.375 33 C12.44211032 37.93966188 11.94483833 43.38817438 11.375 49 C9.65468368 55.20137979 5.7889528 59.64580586 0.375 63 C-9.43511921 67.91153921 -18.07549861 69.6053039 -28.75 66.875 C-37.4868828 63.92560644 -43.46903513 58.95937337 -48.375 51.25 C-50.25763812 46.35514088 -50.5388135 41.93725769 -48.96875 36.890625 C-45.09352323 28.27158614 -38.75105819 23.23183976 -30.03515625 19.87109375 C-23.2414642 18.1357062 -15.30851473 17.77216176 -8.625 20 C-8.71201172 18.46279297 -8.71201172 18.46279297 -8.80078125 16.89453125 C-8.84769957 15.53389989 -8.89319752 14.17321904 -8.9375 12.8125 C-8.97939453 12.13896484 -9.02128906 11.46542969 -9.06445312 10.77148438 C-9.16036781 6.83898225 -8.75158517 5.16497045 -6.33203125 2.01171875 C-3.625 0 -3.625 0 0 0 Z " fill="#EA9EA8" transform="translate(191.625,243)"/>
<path d="M0 0 C1.7322998 1.27052307 1.7322998 1.27052307 3.60742188 2.96704102 C4.31213623 3.60417023 5.01685059 4.24129944 5.74291992 4.8977356 C12.5121631 11.20266873 19.10944529 17.68096948 25.69335938 24.1784668 C27.57085939 26.02411986 29.45636452 27.86166342 31.34960938 29.69116211 C34.09618688 32.34674141 36.81586501 35.02742273 39.53125 37.71484375 C40.38110474 38.52654526 41.23095947 39.33824677 42.10656738 40.17454529 C48.50893892 46.59858918 48.50893892 46.59858918 48.62695312 51.42016602 C48 55 48 55 46.4375 57.5625 C42.93189972 59.62990529 40.90318381 58.91396795 37 58 C34.37391663 56.14927673 34.37391663 56.14927673 31.89086914 53.69897461 C30.95042252 52.78389633 30.00997589 51.86881805 29.04103088 50.92601013 C28.03815656 49.91903289 27.03622036 48.91112059 26.03515625 47.90234375 C24.99213559 46.86845318 23.94837646 45.83530712 22.90391541 44.8028717 C20.72287717 42.63966544 18.55351342 40.46552063 16.39135742 38.28344727 C13.62503993 35.49413478 10.82825999 32.73782438 8.02143192 29.98935604 C5.85994024 27.86462834 3.71744987 25.72150609 1.57998466 23.57263374 C0.55630557 22.54864878 -0.47356877 21.53081721 -1.50974846 20.51948357 C-10.59471785 11.62202509 -10.59471785 11.62202509 -10.72875977 6.43579102 C-10 3 -10 3 -8.375 1 C-5.10148517 -0.37832203 -3.54261375 -0.68127187 0 0 Z " fill="#95D68C" transform="translate(77,54)"/>
<path d="M0 0 C0.89251968 -0.00478363 1.78503937 -0.00956726 2.7046051 -0.01449585 C4.58995325 -0.01789434 6.47536036 -0.00869536 8.3605957 0.01220703 C11.24108931 0.03894353 14.11767538 0.01247561 16.99804688 -0.01953125 C18.83203983 -0.01622652 20.66603035 -0.00981899 22.5 0 C23.35847031 -0.01012115 24.21694061 -0.02024231 25.10142517 -0.03067017 C29.48734096 0.05492762 31.29847666 0.26816079 34.89086914 3.01416016 C36.81640625 5.6640625 36.81640625 5.6640625 36.94140625 8.7265625 C35.50800315 12.46933726 34.21608883 13.54597079 30.81640625 15.6640625 C27.93605186 16.23535395 25.12076082 16.2253472 22.19140625 16.1953125 C21.36688965 16.1991394 20.54237305 16.20296631 19.69287109 16.20690918 C17.95474014 16.20962347 16.216568 16.20229608 14.47851562 16.18554688 C11.82459067 16.16412855 9.17337245 16.18536305 6.51953125 16.2109375 C4.82681697 16.20829414 3.13410436 16.20316897 1.44140625 16.1953125 C0.65169434 16.20340942 -0.13801758 16.21150635 -0.95166016 16.21984863 C-4.8399061 16.15397826 -6.77483301 15.91839655 -10.15625 13.81445312 C-12.77309366 11.03878369 -13.26126598 9.47000168 -13.18359375 5.6640625 C-9.94669421 -0.3344534 -6.18464679 -0.07274395 0 0 Z " fill="#535F70" transform="translate(244.18359375,260.3359375)"/>
<path d="M0 0 C2.64870655 1.99821538 4.66040953 3.59546807 5.46508789 6.92358398 C5.63707001 9.13628393 5.63336601 11.28208554 5.5625 13.5 C5.57345703 14.24636719 5.58441406 14.99273437 5.59570312 15.76171875 C5.54455357 19.61498495 5.22353465 21.63128801 3.18359375 24.99609375 C1 27 1 27 -2.5 27.5625 C-6 27 -6 27 -8.1875 25.55859375 C-10.92795889 21.69005803 -10.58373522 18.12637094 -10.5 13.5 C-10.51546875 12.64535156 -10.5309375 11.79070312 -10.546875 10.91015625 C-10.50814496 4.70366797 -10.50814496 4.70366797 -8.15234375 1.44140625 C-5.1557063 -0.56541629 -3.53738038 -0.64972293 0 0 Z " fill="#545F71" transform="translate(324,243)"/>
<path d="M0 0 C3.3271102 0.98581043 4.3365204 1.35651811 6.375 4 C6.9978433 7.11572188 6.83855069 10.2664207 6.8125 13.4375 C6.83248047 14.29666016 6.85246094 15.15582031 6.87304688 16.04101562 C6.86817989 22.31456355 6.86817989 22.31456355 4.53125 25.5625 C1.53128688 27.56247541 -0.08809915 27.64963485 -3.625 27 C-6.27208201 25.00006911 -8.27620717 23.3942865 -9.10620117 20.07641602 C-9.29818739 17.86357615 -9.30751388 15.72003594 -9.25 13.5 C-9.26933594 12.75363281 -9.28867188 12.00726563 -9.30859375 11.23828125 C-9.2716222 7.06049631 -8.9277607 5.396862 -6.3125 1.96875 C-3.625 0 -3.625 0 0 0 Z " fill="#545F71" transform="translate(191.625,243)"/>
<path d="M0 0 C0.99 0.33 1.98 0.66 3 1 C-1.29 5.29 -5.58 9.58 -10 14 C-10 9.84439769 -7.7179548 8.15900671 -5 5.3125 C-4.52304687 4.80138672 -4.04609375 4.29027344 -3.5546875 3.76367188 C-2.37640085 2.50290516 -1.18904747 1.25062314 0 0 Z " fill="#6ACB89" transform="translate(403,45)"/>
</svg>
